  0
SECTION
  2
BLOCKS
  0
ENDSEC
  0
SECTION
  2
ENTITIES
  0
LINE
  8
0
 10
9.99998
 20
-10
 11
10
 21
9.99998
  0
LINE
  8
0
 10
10
 20
9.99998
 11
-9.99998
 21
10
  0
LINE
  8
0
 10
-9.99998
 20
10
 11
-10
 21
-9.99998
  0
LINE
  8
0
 10
-10
 20
-9.99998
 11
-3.2998
 21
-10
  0
LINE
  8
0
 10
-3.2998
 20
-10
 11
-3.20312
 21
-9.99414
  0
LINE
  8
0
 10
-3.20312
 20
-9.99414
 11
-3.1084
 21
-9.97656
  0
LINE
  8
0
 10
-3.1084
 20
-9.97656
 11
-3.0166
 21
-9.94824
  0
LINE
  8
0
 10
-3.0166
 20
-9.94824
 11
-2.92773
 21
-9.9082
  0
LINE
  8
0
 10
-2.92773
 20
-9.9082
 11
-2.8457
 21
-9.8584
  0
LINE
  8
0
 10
-2.8457
 20
-9.8584
 11
-2.76953
 21
-9.79883
  0
LINE
  8
0
 10
-2.76953
 20
-9.79883
 11
-2.70117
 21
-9.73047
  0
LINE
  8
0
 10
-2.70117
 20
-9.73047
 11
-2.6416
 21
-9.6543
  0
LINE
  8
0
 10
-2.6416
 20
-9.6543
 11
-2.5918
 21
-9.57227
  0
LINE
  8
0
 10
-2.5918
 20
-9.57227
 11
-2.55176
 21
-9.4834
  0
LINE
  8
0
 10
-2.55176
 20
-9.4834
 11
-2.52344
 21
-9.3916
  0
LINE
  8
0
 10
-2.52344
 20
-9.3916
 11
-2.50586
 21
-9.29688
  0
LINE
  8
0
 10
-2.50586
 20
-9.29688
 11
-2.5
 21
-9.2002
  0
LINE
  8
0
 10
-2.5
 20
-9.2002
 11
-2.5
 21
-8.5
  0
LINE
  8
0
 10
-2.5
 20
-8.5
 11
-2.50195
 21
-8.46387
  0
LINE
  8
0
 10
-2.50195
 20
-8.46387
 11
-2.50879
 21
-8.42773
  0
LINE
  8
0
 10
-2.50879
 20
-8.42773
 11
-2.51953
 21
-8.39355
  0
LINE
  8
0
 10
-2.51953
 20
-8.39355
 11
-2.53418
 21
-8.36035
  0
LINE
  8
0
 10
-2.53418
 20
-8.36035
 11
-2.55273
 21
-8.3291
  0
LINE
  8
0
 10
-2.55273
 20
-8.3291
 11
-2.5752
 21
-8.30078
  0
LINE
  8
0
 10
-2.5752
 20
-8.30078
 11
-2.60059
 21
-8.27539
  0
LINE
  8
0
 10
-2.60059
 20
-8.27539
 11
-2.62988
 21
-8.25293
  0
LINE
  8
0
 10
-2.62988
 20
-8.25293
 11
-2.66016
 21
-8.23438
  0
LINE
  8
0
 10
-2.66016
 20
-8.23438
 11
-2.69336
 21
-8.21973
  0
LINE
  8
0
 10
-2.69336
 20
-8.21973
 11
-2.72852
 21
-8.20898
  0
LINE
  8
0
 10
-2.72852
 20
-8.20898
 11
-2.76367
 21
-8.20215
  0
LINE
  8
0
 10
-2.76367
 20
-8.20215
 11
-2.7998
 21
-8.2002
  0
LINE
  8
0
 10
-2.7998
 20
-8.2002
 11
-4.99609
 21
-8.2002
  0
LINE
  8
0
 10
-4.99609
 20
-8.2002
 11
-5.09473
 21
-8.19434
  0
LINE
  8
0
 10
-5.09473
 20
-8.19434
 11
-5.19238
 21
-8.17578
  0
LINE
  8
0
 10
-5.19238
 20
-8.17578
 11
-5.28711
 21
-8.14551
  0
LINE
  8
0
 10
-5.28711
 20
-8.14551
 11
-5.37695
 21
-8.10352
  0
LINE
  8
0
 10
-5.37695
 20
-8.10352
 11
-5.46094
 21
-8.05078
  0
LINE
  8
0
 10
-5.46094
 20
-8.05078
 11
-5.53809
 21
-7.98828
  0
LINE
  8
0
 10
-5.53809
 20
-7.98828
 11
-5.60645
 21
-7.91699
  0
LINE
  8
0
 10
-5.60645
 20
-7.91699
 11
-5.66602
 21
-7.83789
  0
LINE
  8
0
 10
-5.66602
 20
-7.83789
 11
-5.71484
 21
-7.75098
  0
LINE
  8
0
 10
-5.71484
 20
-7.75098
 11
-5.75293
 21
-7.66016
  0
LINE
  8
0
 10
-5.75293
 20
-7.66016
 11
-5.7793
 21
-7.56445
  0
LINE
  8
0
 10
-5.7793
 20
-7.56445
 11
-5.79297
 21
-7.46582
  0
LINE
  8
0
 10
-5.79297
 20
-7.46582
 11
-5.79492
 21
-7.36719
  0
LINE
  8
0
 10
-5.79492
 20
-7.36719
 11
-5.78516
 21
-7.26855
  0
LINE
  8
0
 10
-5.78516
 20
-7.26855
 11
-5.7627
 21
-7.17188
  0
LINE
  8
0
 10
-5.7627
 20
-7.17188
 11
-5.72852
 21
-7.0791
  0
LINE
  8
0
 10
-5.72852
 20
-7.0791
 11
-5.68262
 21
-6.99023
  0
LINE
  8
0
 10
-5.68262
 20
-6.99023
 11
-5.62695
 21
-6.9082
  0
LINE
  8
0
 10
-5.62695
 20
-6.9082
 11
-5.56152
 21
-6.83398
  0
LINE
  8
0
 10
-5.56152
 20
-6.83398
 11
-3.25586
 21
-4.52832
  0
LINE
  8
0
 10
-3.25586
 20
-4.52832
 11
-3.00488
 21
-4.30469
  0
LINE
  8
0
 10
-3.00488
 20
-4.30469
 11
-2.73047
 21
-4.10938
  0
LINE
  8
0
 10
-2.73047
 20
-4.10938
 11
-2.43652
 21
-3.94727
  0
LINE
  8
0
 10
-2.43652
 20
-3.94727
 11
-2.125
 21
-3.81836
  0
LINE
  8
0
 10
-2.125
 20
-3.81836
 11
-1.80176
 21
-3.72559
  0
LINE
  8
0
 10
-1.80176
 20
-3.72559
 11
-1.4707
 21
-3.66895
  0
LINE
  8
0
 10
-1.4707
 20
-3.66895
 11
-1.13477
 21
-3.65039
  0
LINE
  8
0
 10
-1.13477
 20
-3.65039
 11
1.13477
 21
-3.65039
  0
LINE
  8
0
 10
1.13477
 20
-3.65039
 11
1.4707
 21
-3.66895
  0
LINE
  8
0
 10
1.4707
 20
-3.66895
 11
1.80176
 21
-3.72559
  0
LINE
  8
0
 10
1.80176
 20
-3.72559
 11
2.125
 21
-3.81836
  0
LINE
  8
0
 10
2.125
 20
-3.81836
 11
2.43652
 21
-3.94727
  0
LINE
  8
0
 10
2.43652
 20
-3.94727
 11
2.73047
 21
-4.10938
  0
LINE
  8
0
 10
2.73047
 20
-4.10938
 11
3.00488
 21
-4.30469
  0
LINE
  8
0
 10
3.00488
 20
-4.30469
 11
3.25586
 21
-4.52832
  0
LINE
  8
0
 10
3.25586
 20
-4.52832
 11
5.56152
 21
-6.83398
  0
LINE
  8
0
 10
5.56152
 20
-6.83398
 11
5.62695
 21
-6.9082
  0
LINE
  8
0
 10
5.62695
 20
-6.9082
 11
5.68262
 21
-6.99023
  0
LINE
  8
0
 10
5.68262
 20
-6.99023
 11
5.72852
 21
-7.0791
  0
LINE
  8
0
 10
5.72852
 20
-7.0791
 11
5.7627
 21
-7.17188
  0
LINE
  8
0
 10
5.7627
 20
-7.17188
 11
5.78516
 21
-7.26855
  0
LINE
  8
0
 10
5.78516
 20
-7.26855
 11
5.79492
 21
-7.36719
  0
LINE
  8
0
 10
5.79492
 20
-7.36719
 11
5.79297
 21
-7.46582
  0
LINE
  8
0
 10
5.79297
 20
-7.46582
 11
5.7793
 21
-7.56445
  0
LINE
  8
0
 10
5.7793
 20
-7.56445
 11
5.75293
 21
-7.66016
  0
LINE
  8
0
 10
5.75293
 20
-7.66016
 11
5.71484
 21
-7.75098
  0
LINE
  8
0
 10
5.71484
 20
-7.75098
 11
5.66602
 21
-7.83789
  0
LINE
  8
0
 10
5.66602
 20
-7.83789
 11
5.60645
 21
-7.91699
  0
LINE
  8
0
 10
5.60645
 20
-7.91699
 11
5.53809
 21
-7.98828
  0
LINE
  8
0
 10
5.53809
 20
-7.98828
 11
5.46094
 21
-8.05078
  0
LINE
  8
0
 10
5.46094
 20
-8.05078
 11
5.37695
 21
-8.10352
  0
LINE
  8
0
 10
5.37695
 20
-8.10352
 11
5.28711
 21
-8.14551
  0
LINE
  8
0
 10
5.28711
 20
-8.14551
 11
5.19238
 21
-8.17578
  0
LINE
  8
0
 10
5.19238
 20
-8.17578
 11
5.09473
 21
-8.19434
  0
LINE
  8
0
 10
5.09473
 20
-8.19434
 11
4.99609
 21
-8.2002
  0
LINE
  8
0
 10
4.99609
 20
-8.2002
 11
2.7998
 21
-8.2002
  0
LINE
  8
0
 10
2.7998
 20
-8.2002
 11
2.76367
 21
-8.20215
  0
LINE
  8
0
 10
2.76367
 20
-8.20215
 11
2.72852
 21
-8.20898
  0
LINE
  8
0
 10
2.72852
 20
-8.20898
 11
2.69336
 21
-8.21973
  0
LINE
  8
0
 10
2.69336
 20
-8.21973
 11
2.66016
 21
-8.23438
  0
LINE
  8
0
 10
2.66016
 20
-8.23438
 11
2.62988
 21
-8.25293
  0
LINE
  8
0
 10
2.62988
 20
-8.25293
 11
2.60059
 21
-8.27539
  0
LINE
  8
0
 10
2.60059
 20
-8.27539
 11
2.5752
 21
-8.30078
  0
LINE
  8
0
 10
2.5752
 20
-8.30078
 11
2.55273
 21
-8.3291
  0
LINE
  8
0
 10
2.55273
 20
-8.3291
 11
2.53418
 21
-8.36035
  0
LINE
  8
0
 10
2.53418
 20
-8.36035
 11
2.51953
 21
-8.39355
  0
LINE
  8
0
 10
2.51953
 20
-8.39355
 11
2.50879
 21
-8.42773
  0
LINE
  8
0
 10
2.50879
 20
-8.42773
 11
2.50195
 21
-8.46387
  0
LINE
  8
0
 10
2.50195
 20
-8.46387
 11
2.5
 21
-8.5
  0
LINE
  8
0
 10
2.5
 20
-8.5
 11
2.5
 21
-9.2002
  0
LINE
  8
0
 10
2.5
 20
-9.2002
 11
2.50586
 21
-9.29688
  0
LINE
  8
0
 10
2.50586
 20
-9.29688
 11
2.52344
 21
-9.3916
  0
LINE
  8
0
 10
2.52344
 20
-9.3916
 11
2.55176
 21
-9.4834
  0
LINE
  8
0
 10
2.55176
 20
-9.4834
 11
2.5918
 21
-9.57227
  0
LINE
  8
0
 10
2.5918
 20
-9.57227
 11
2.6416
 21
-9.6543
  0
LINE
  8
0
 10
2.6416
 20
-9.6543
 11
2.70117
 21
-9.73047
  0
LINE
  8
0
 10
2.70117
 20
-9.73047
 11
2.76953
 21
-9.79883
  0
LINE
  8
0
 10
2.76953
 20
-9.79883
 11
2.8457
 21
-9.8584
  0
LINE
  8
0
 10
2.8457
 20
-9.8584
 11
2.92773
 21
-9.9082
  0
LINE
  8
0
 10
2.92773
 20
-9.9082
 11
3.0166
 21
-9.94824
  0
LINE
  8
0
 10
3.0166
 20
-9.94824
 11
3.1084
 21
-9.97656
  0
LINE
  8
0
 10
3.1084
 20
-9.97656
 11
3.20312
 21
-9.99414
  0
LINE
  8
0
 10
3.20312
 20
-9.99414
 11
3.2998
 21
-10
  0
LINE
  8
0
 10
3.2998
 20
-10
 11
9.99998
 21
-10
  0
ENDSEC
  0
SECTION
  2
OBJECTS
  0
DICTIONARY
  0
ENDSEC
  0
EOF
